<svg width="30" height="30" viewBox="0 0 30 30" fill="none" xmlns="http://www.w3.org/2000/svg">
<path d="M0 15C0 6.71573 6.71573 0 15 0C23.2843 0 30 6.71573 30 15C30 23.2843 23.2843 30 15 30C6.71573 30 0 23.2843 0 15Z" fill="#006CFA" fill-opacity="0.3"/>
<path d="M21 7H9C7.875 7 7 7.90625 7 9V18C7 19.125 7.875 20 9 20H12V22.625C12 22.875 12.1562 23 12.375 23C12.4375 23 12.5 23 12.5938 22.9375L16.5 20H21C22.0938 20 23 19.125 23 18V9C23 7.90625 22.0938 7 21 7ZM21.5 18C21.5 18.2812 21.25 18.5 21 18.5H16L15.5938 18.8125L13.5 20.375V18.5H9C8.71875 18.5 8.5 18.2812 8.5 18V9C8.5 8.75 8.71875 8.5 9 8.5H21C21.25 8.5 21.5 8.75 21.5 9V18Z" fill="#006CFA"/>
</svg>
