<svg width="30" height="30" viewBox="0 0 30 30" fill="none" xmlns="http://www.w3.org/2000/svg">
<path d="M0 15C0 6.71573 6.71573 0 15 0C23.2843 0 30 6.71573 30 15C30 23.2843 23.2843 30 15 30C6.71573 30 0 23.2843 0 15Z" fill="#F44900"/>
<path d="M15 7C11.4688 10.1875 9 13.9062 9 16.4062C9 20.3125 11.4375 23 15 23C18.5312 23 21 20.3125 21 16.4062C21 13.9062 18.4688 10.1562 15 7ZM15 21.5C12.2812 21.5 10.5 19.4688 10.5 16.4062C10.5 14.9688 11.9062 12.125 14.9688 9.09375C17.6875 11.75 19.5 14.6562 19.5 16.4062C19.5 19.4688 17.6875 21.5 15 21.5ZM16.4062 14.5C15.7812 13.9688 15.1875 13.4688 15.1875 12.6875C15.1875 12.5938 15.0938 12.5312 15.0625 12.5312C15 12.5 14.875 12.5 14.8125 12.5938C13.0938 14.9375 15.75 14.75 15.75 16.4375C15.75 17.1875 15.1562 17.75 14.4375 17.75C13.6875 17.75 13.125 17.1875 13.125 16.4375V15.5C13.0938 15.4062 13.0312 15.3438 12.9375 15.3438C12.875 15.3438 12.8125 15.3438 12.7812 15.375C12.5938 15.5625 12 16.2188 12 17.25C12 18.7812 13.3438 20 15 20C16.625 20 18 18.7812 18 17.25C18 15.875 17.1875 15.1875 16.4062 14.5Z" fill="white" fill-opacity="0.96"/>
</svg>
