<svg width="30" height="30" viewBox="0 0 30 30" fill="none" xmlns="http://www.w3.org/2000/svg">
<path d="M0 15C0 6.71573 6.71573 0 15 0C23.2843 0 30 6.71573 30 15C30 23.2843 23.2843 30 15 30C6.71573 30 0 23.2843 0 15Z" fill="#12151D" fill-opacity="0.3"/>
<path d="M19 17C18.1875 17 17.4688 17.3125 16.9062 17.8438L13.8438 15.9062C14.0312 15.3438 14.0312 14.6875 13.8438 14.125L16.9062 12.1875C17.4688 12.6875 18.1875 13 19 13C20.6562 13 22 11.6562 22 10C22 8.34375 20.6562 7 19 7C17.3438 7 16 8.34375 16 10C16 10.3125 16.0312 10.625 16.125 10.9062L13.0625 12.8438C12.5 12.3125 11.7812 12 11 12C9.34375 12 8 13.3438 8 15C8 16.6562 9.34375 18 11 18C11.7812 18 12.5 17.6875 13.0625 17.1875L16.125 19.125C16.0312 19.4062 16 19.7188 16 20C16 21.6562 17.3438 23 19 23C20.6562 23 22 21.6562 22 20C22 18.3438 20.6562 17 19 17ZM19 8.5C19.8125 8.5 20.5 9.1875 20.5 10C20.5 10.8438 19.8125 11.5 19 11.5C18.1562 11.5 17.5 10.8438 17.5 10C17.5 9.1875 18.1562 8.5 19 8.5ZM11 16.5C10.1562 16.5 9.5 15.8438 9.5 15C9.5 14.1875 10.1562 13.5 11 13.5C11.8125 13.5 12.5 14.1875 12.5 15C12.5 15.8438 11.8125 16.5 11 16.5ZM19 21.5C18.1562 21.5 17.5 20.8438 17.5 20C17.5 19.1875 18.1562 18.5 19 18.5C19.8125 18.5 20.5 19.1875 20.5 20C20.5 20.8438 19.8125 21.5 19 21.5Z" fill="#12151D" fill-opacity="0.87"/>
</svg>
